#!OML:ASF H:\ManfredETheater\Project 1\Capture day 1\Session 1\subject.ASF
:FULLY-SPECIFIED
:DEGREES
121
root 0.560017 16.9086 -9.145 -182.731 -5.35856 -180.868
lowerback 9.96874 -1.2159 -0.097566
upperback -3.05625 -1.53002 1.79892
thorax -8.80599 -0.696152 2.2379
lowerneck -18.753 -2.09992 -3.39646
upperneck 11.6147 -2.06605 0.6776
head 6.63988 -1.0934 0.539151
rclavicle -8.69683e-015 -3.97569e-015
rhumerus -48.3886 1.7682 -80.5067
rradius 77.4321
rwrist 1.57697
rhand -27.8921 4.57739
rfingers 7.12502
rthumb -1.28166 -25.3985
lclavicle -8.69683e-015 -3.97569e-015
lhumerus -40.7704 -8.93416 94.9765
lradius 75.1429
lwrist -0.231044
lhand -31.993 -13.7586
lfingers 7.12502
lthumb -5.24199 16.1565
rfemur -33.8671 -3.2793 20.1416
rtibia 42.4009
rfoot -0.737111 -7.90738
rtoes -9.62452
lfemur -12.5795 -3.71036 -22.7201
ltibia 56.723
lfoot -27.01 -0.623438
ltoes -0.49409
122
root 0.58184 16.9298 -9.30687 -182.471 -5.3272 -180.585
lowerback 9.92943 -1.21061 0.110083
upperback -3.08322 -1.49214 1.90539
thorax -8.81648 -0.688099 2.22768
lowerneck -18.7489 -2.05152 -3.3219
upperneck 11.5776 -2.00472 0.57513
head 6.62407 -1.06971 0.500872
rclavicle -2.73329e-015 1.66979e-014
rhumerus -47.8745 1.74564 -80.2151
rradius 76.6395
rwrist 1.59186
rhand -27.9739 4.48839
rfingers 7.12502
rthumb -1.36072 -25.487
lclavicle -2.73329e-015 1.66979e-014
lhumerus -40.0577 -8.10132 94.9676
lradius 74.8408
lwrist -1.0901
lhand -32.249 -13.645
lfingers 7.12502
lthumb -5.48911 16.2639
rfemur -33.7866 -2.96508 20.5805
rtibia 42.7615
rfoot -1.22285 -8.31833
rtoes -10.1683
lfemur -12.4481 -4.06163 -22.3141
ltibia 56.859
lfoot -26.7408 -0.58994
ltoes -1.48331
123
root 0.604041 16.9576 -9.46423 -182.148 -5.37621 -180.488
lowerback 9.83238 -1.22796 0.106008
upperback -3.12905 -1.51494 1.96437
thorax -8.8073 -0.698471 2.29509
lowerneck -18.7171 -1.98833 -3.23505
upperneck 11.5473 -1.93033 0.490614
head 6.60584 -1.03753 0.468096
rclavicle -1.49089e-014 -7.95139e-015
rhumerus -47.3194 1.64874 -79.9441
rradius 75.7098
rwrist 1.72411
rhand -28.0052 4.40285
rfingers 7.12502
rthumb -1.39091 -25.5724
lclavicle -1.49089e-014 -7.95139e-015
lhumerus -39.4162 -7.20165 94.9455
lradius 74.3387
lwrist -1.89133
lhand -32.5001 -13.4585
lfingers 7.12502
lthumb -5.73158 16.444
rfemur -33.7237 -2.74011 20.7947
rtibia 43.0636
rfoot -1.70332 -8.67364
rtoes -10.5637
lfemur -12.3818 -4.52867 -22.145
ltibia 56.8756
lfoot -26.3894 -0.512546
ltoes -2.21361
124
root 0.627098 16.9911 -9.61668 -181.786 -5.51973 -180.558
lowerback 9.70124 -1.27206 -0.0851181
upperback -3.18466 -1.59973 1.97532
thorax -8.78259 -0.729096 2.42611
lowerneck -18.6673 -1.92198 -3.14907
upperneck 11.5236 -1.85703 0.439836
head 6.58728 -1.00282 0.446386
rclavicle -3.58806e-014 -3.18055e-015
rhumerus -46.736 1.44731 -79.6913
rradius 74.6688
rwrist 2.04189
rhand -27.9844 4.34145
rfingers 7.12502
rthumb -1.37089 -25.6339
lclavicle -3.58806e-014 -3.18055e-015
lhumerus -38.8532 -6.29331 94.9086
lradius 73.6575
lwrist -2.56574
lhand -32.741 -13.2059
lfingers 7.12502
lthumb -5.96417 16.6901
rfemur -33.643 -2.59762 20.8027
rtibia 43.2913
rfoot -2.18908 -9.0051
rtoes -10.8482
lfemur -12.371 -5.09318 -22.1863
ltibia 56.7722
lfoot -26.0091 -0.405381
ltoes -2.7363
125
root 0.651078 17.0296 -9.76412 -181.404 -5.75139 -180.761
lowerback 9.5574 -1.34036 -0.42192
upperback -3.24456 -1.73672 1.94513
thorax -8.74922 -0.777455 2.60337
lowerneck -18.6038 -1.86038 -3.07072
upperneck 11.503 -1.79383 0.424522
head 6.56814 -0.970036 0.436352
rclavicle 2.6339e-015 -1.74931e-014
rhumerus -46.1511 1.12952 -79.4552
rradius 73.5637
rwrist 2.55501
rhand -27.9223 4.31031
rfingers 7.12502
rthumb -1.3109 -25.6654
lclavicle 2.6339e-015 -1.74931e-014
lhumerus -38.3717 -5.43924 94.8639
lradius 72.8283
lwrist -3.03587
lhand -32.958 -12.8841
lfingers 7.12502
lthumb -6.17369 17.006
rfemur -33.5182 -2.53249 20.6502
rtibia 43.4216
rfoot -2.66528 -9.33302
rtoes -10.987
lfemur -12.4106 -5.71518 -22.3916
ltibia 56.5551
lfoot -25.6527 -0.298554
ltoes -3.08587
126
root 0.675576 17.0725 -9.90636 -181.014 -6.0501 -181.002
lowerback 9.41264 -1.42793 -0.792681
upperback -3.30467 -1.90407 1.89529
thorax -8.71223 -0.839166 2.78326
lowerneck -18.5389 -1.81154 -3.00503
upperneck 11.4884 -1.7495 0.442802
head 6.55148 -0.943857 0.437126
rclavicle 4.09496e-014 -2.62396e-014
rhumerus -45.5867 0.693834 -79.2382
rradius 72.4416
rwrist 3.23409
rhand -27.8402 4.31701
rfingers 7.12502
rthumb -1.23162 -25.6592
lclavicle 4.09496e-014 -2.62396e-014
lhumerus -37.9719 -4.70125 94.8203
lradius 71.8933
lwrist -3.22546
lhand -33.1298 -12.4985
lfingers 7.12502
lthumb -6.33956 17.3866
rfemur -33.3338 -2.51459 20.448
rtibia 43.4302
rfoot -3.10251 -9.6805
rtoes -11.0045
lfemur -12.5049 -6.34408 -22.6451
ltibia 56.2393
lfoot -25.3794 -0.207372
ltoes -3.4007
